<?xml version="1.0"?>
<!DOCTYPE svg PUBLIC "-//W3C//DTD SVG 1.1//EN" "http://www.w3.org/Graphics/SVG/1.1/DTD/svg11.dtd">
<svg viewBox="85 54 427 500" preserveAspectRatio="xMinYMin meet" version="1.1" xmlns="http://www.w3.org/2000/svg">
<g id="background"><rect x="85" y="54" width="427" height="500" fill="#FFFFFF" stroke="none"/></g>
<g id="Resistor">
<line x1="448" y1="288" x2="432" y2="288" stroke="#6F8F6F" stroke-opacity="1" stroke-width="3" stroke-linecap="round" fill="none" />
<line x1="400" y1="288" x2="384" y2="288" stroke="#6F8F6F" stroke-opacity="1" stroke-width="3" stroke-linecap="round" fill="none" />
<polyline stroke="#6F8F6F" stroke-opacity="1" stroke-linecap="round" stroke-linejoin="round" stroke-width="3" fill="none" points="432,288 429.3333,296 426.6667,288 424,280 421.3333,288 " />
<polyline stroke="#6F8F6F" stroke-opacity="1" stroke-linecap="round" stroke-linejoin="round" stroke-width="3" fill="none" points="421.3333,288 418.6667,296 416,288 413.3333,280 410.6667,288 " />
<polyline stroke="#6F8F6F" stroke-opacity="1" stroke-linecap="round" stroke-linejoin="round" stroke-width="3" fill="none" points="410.6667,288 408,296 405.3333,288 402.6667,280 400,288 " />
<text x="399" y="275.8" font-family="sans-serif" font-size="16" fill="#000000">100k</text>
</g>
<g id="Capacitor">
<line x1="192" y1="192" x2="192" y2="220" stroke="#6F8F6F" stroke-opacity="1" stroke-width="3" stroke-linecap="round" fill="none" />
<line x1="204" y1="220" x2="180" y2="220" stroke="#6F8F6F" stroke-opacity="1" stroke-width="3" stroke-linecap="round" fill="none" />
<line x1="192" y1="256" x2="192" y2="228" stroke="#6F8F6F" stroke-opacity="1" stroke-width="3" stroke-linecap="round" fill="none" />
<path d="M 180.686294555664 232.686294555664 A 16 16 0 0 1 203.313705444336 232.686294555664" stroke="#6F8F6F" stroke-opacity="1" stroke-width="3" fill="none" fill-opacity="0" />
<text x="210" y="228.8" font-family="sans-serif" font-size="16" fill="#000000">10uF</text>
</g>
<g id="DC Source">
<line x1="320" y1="544" x2="320" y2="516" stroke="#877777" stroke-opacity="1" stroke-width="3" stroke-linecap="round" fill="none" />
<line x1="320" y1="508" x2="320" y2="480" stroke="#07F707" stroke-opacity="1" stroke-width="3" stroke-linecap="round" fill="none" />
<line x1="310" y1="516" x2="330" y2="516" stroke="#877777" stroke-opacity="1" stroke-width="3" stroke-linecap="round" fill="none" />
<line x1="304" y1="508" x2="336" y2="508" stroke="#07F707" stroke-opacity="1" stroke-width="3" stroke-linecap="round" fill="none" />
<text x="344" y="516.8" font-family="sans-serif" font-size="16" fill="#000000">9V</text>
</g>
<g id="Resistor">
<line x1="320" y1="416" x2="320" y2="432" stroke="#4FAF4F" stroke-opacity="1" stroke-width="3" stroke-linecap="round" fill="none" />
<line x1="320" y1="464" x2="320" y2="480" stroke="#07F707" stroke-opacity="1" stroke-width="3" stroke-linecap="round" fill="none" />
<polyline stroke="#4FAF4F" stroke-opacity="1" stroke-linecap="round" stroke-linejoin="round" stroke-width="3" fill="none" points="320,432 328,434.6667 320,437.3333 312,440 320,442.6667 " />
<polyline stroke="#37C737" stroke-opacity="1" stroke-linecap="round" stroke-linejoin="round" stroke-width="3" fill="none" points="320,442.6667 328,445.3333 320,448 312,450.6667 320,453.3333 " />
<polyline stroke="#1FDF1F" stroke-opacity="1" stroke-linecap="round" stroke-linejoin="round" stroke-width="3" fill="none" points="320,453.3333 328,456 320,458.6667 312,461.3333 320,464 " />
<text x="335" y="452.8" font-family="sans-serif" font-size="16" fill="#000000">1k</text>
</g>
<g id="Potentiometer">
<line x1="320" y1="352" x2="320" y2="368" stroke="#6F8F6F" stroke-opacity="1" stroke-width="3" stroke-linecap="round" fill="none" />
<line x1="320" y1="400" x2="320" y2="416" stroke="#4FAF4F" stroke-opacity="1" stroke-width="3" stroke-linecap="round" fill="none" />
<line x1="320" y1="368" x2="328" y2="370.6667" stroke="#6F8F6F" stroke-opacity="1" stroke-width="3" stroke-linecap="round" fill="none" />
<line x1="328" y1="370.6667" x2="320" y2="373.3333" stroke="#6F8F6F" stroke-opacity="1" stroke-width="3" stroke-linecap="round" fill="none" />
<line x1="320" y1="373.3333" x2="312" y2="376" stroke="#6F8F6F" stroke-opacity="1" stroke-width="3" stroke-linecap="round" fill="none" />
<line x1="312" y1="376" x2="320" y2="378.6667" stroke="#6F8F6F" stroke-opacity="1" stroke-width="3" stroke-linecap="round" fill="none" />
<line x1="320" y1="378.6667" x2="328" y2="381.3333" stroke="#6F8F6F" stroke-opacity="1" stroke-width="3" stroke-linecap="round" fill="none" />
<line x1="328" y1="381.3333" x2="320" y2="384" stroke="#6F8F6F" stroke-opacity="1" stroke-width="3" stroke-linecap="round" fill="none" />
<line x1="320" y1="384" x2="312" y2="386.6667" stroke="#6F8F6F" stroke-opacity="1" stroke-width="3" stroke-linecap="round" fill="none" />
<line x1="312" y1="386.6667" x2="320" y2="389.3333" stroke="#679767" stroke-opacity="1" stroke-width="3" stroke-linecap="round" fill="none" />
<line x1="320" y1="389.3333" x2="328" y2="392" stroke="#679767" stroke-opacity="1" stroke-width="3" stroke-linecap="round" fill="none" />
<line x1="328" y1="392" x2="320" y2="394.6667" stroke="#5F9F5F" stroke-opacity="1" stroke-width="3" stroke-linecap="round" fill="none" />
<line x1="320" y1="394.6667" x2="312" y2="397.3333" stroke="#57A757" stroke-opacity="1" stroke-width="3" stroke-linecap="round" fill="none" />
<line x1="312" y1="397.3333" x2="320" y2="400" stroke="#4FAF4F" stroke-opacity="1" stroke-width="3" stroke-linecap="round" fill="none" />
<line x1="352" y1="384" x2="352" y2="384" stroke="#6F8F6F" stroke-opacity="1" stroke-width="3" stroke-linecap="round" fill="none" />
<line x1="352" y1="384" x2="328" y2="384" stroke="#6F8F6F" stroke-opacity="1" stroke-width="3" stroke-linecap="round" fill="none" />
<line x1="336" y1="392" x2="328" y2="384" stroke="#6F8F6F" stroke-opacity="1" stroke-width="3" stroke-linecap="round" fill="none" />
<line x1="336" y1="376" x2="328" y2="384" stroke="#6F8F6F" stroke-opacity="1" stroke-width="3" stroke-linecap="round" fill="none" />
</g>
<g id="BJT Transistor (NPN)">
<line x1="320" y1="192" x2="292" y2="212" stroke="#6F8F6F" stroke-opacity="1" stroke-width="3" stroke-linecap="round" fill="none" />
<line x1="320" y1="256" x2="292" y2="236" stroke="#6F8F6F" stroke-opacity="1" stroke-width="3" stroke-linecap="round" fill="none" />
<polygon fill="#6F8F6F" fill-opacity="1" stroke="none" points="320,256 312,240 302,253 " />
<line x1="256" y1="224" x2="288" y2="224" stroke="#6F8F6F" stroke-opacity="1" stroke-width="3" stroke-linecap="round" fill="none" />
<polygon fill="#6F8F6F" fill-opacity="1" stroke="none" points="288,198 294,198 294,250 288,250 " />
<ellipse cx="256" cy="224" rx="4" ry="4" stroke="#877777" stroke-opacity="1" stroke-width="1" fill="none" />
</g>
<g id="LED">
<line x1="320" y1="128" x2="320" y2="105" stroke="#6F8F6F" stroke-opacity="1" stroke-width="3" stroke-linecap="round" fill="none" />
<line x1="320" y1="86" x2="320" y2="64" stroke="#877777" stroke-opacity="1" stroke-width="3" stroke-linecap="round" fill="none" />
<polygon fill="#FF1919" fill-opacity="0.47843137254902" stroke="none" points="307,105 333,105 320,86 " />
<polygon stroke="#6F8F6F" stroke-opacity="1" stroke-width="2" fill="none" points="307,105 333,105 320,86 " />
<line x1="307" y1="86" x2="333" y2="86" stroke="#877777" stroke-opacity="1" stroke-width="3" stroke-linecap="round" fill="none" />
<line x1="309" y1="95" x2="305" y2="92" stroke="#6F8F6F" stroke-opacity="1" stroke-width="2" stroke-linecap="round" fill="none" />
<line x1="306" y1="99" x2="302" y2="96" stroke="#6F8F6F" stroke-opacity="1" stroke-width="2" stroke-linecap="round" fill="none" />
</g>
<g id="Wire">
<line x1="320" y1="261" x2="320" y2="283" stroke="#FFFFFF" stroke-opacity="1" stroke-width="6" stroke-linecap="round" fill="none" />
<line x1="320" y1="256" x2="320" y2="288" stroke="#6F8F6F" stroke-opacity="1" stroke-width="1.5" stroke-linecap="round" fill="none" />
<ellipse cx="320" cy="288" rx="4" ry="4" fill="#6F8F6F" fill-opacity="1" stroke="none" />
</g>
<g id="Wire">
<line x1="192" y1="261" x2="192" y2="283" stroke="#FFFFFF" stroke-opacity="1" stroke-width="6" stroke-linecap="round" fill="none" />
<line x1="192" y1="256" x2="192" y2="288" stroke="#6F8F6F" stroke-opacity="1" stroke-width="1.5" stroke-linecap="round" fill="none" />
</g>
<g id="Wire">
<line x1="211" y1="288" x2="301" y2="288" stroke="#FFFFFF" stroke-opacity="1" stroke-width="6" stroke-linecap="round" fill="none" />
<line x1="192" y1="288" x2="320" y2="288" stroke="#6F8F6F" stroke-opacity="1" stroke-width="1.5" stroke-linecap="round" fill="none" />
<ellipse cx="320" cy="288" rx="4" ry="4" fill="#6F8F6F" fill-opacity="1" stroke="none" />
</g>
<g id="Wire">
<line x1="211" y1="160" x2="301" y2="160" stroke="#FFFFFF" stroke-opacity="1" stroke-width="6" stroke-linecap="round" fill="none" />
<line x1="192" y1="160" x2="320" y2="160" stroke="#6F8F6F" stroke-opacity="1" stroke-width="1.5" stroke-linecap="round" fill="none" />
<ellipse cx="320" cy="160" rx="4" ry="4" fill="#6F8F6F" fill-opacity="1" stroke="none" />
</g>
<g id="Wire">
<line x1="192" y1="165" x2="192" y2="187" stroke="#FFFFFF" stroke-opacity="1" stroke-width="6" stroke-linecap="round" fill="none" />
<line x1="192" y1="160" x2="192" y2="192" stroke="#6F8F6F" stroke-opacity="1" stroke-width="1.5" stroke-linecap="round" fill="none" />
</g>
<g id="Wire">
<line x1="320" y1="165" x2="320" y2="187" stroke="#FFFFFF" stroke-opacity="1" stroke-width="6" stroke-linecap="round" fill="none" />
<line x1="320" y1="160" x2="320" y2="192" stroke="#6F8F6F" stroke-opacity="1" stroke-width="1.5" stroke-linecap="round" fill="none" />
<ellipse cx="320" cy="160" rx="4" ry="4" fill="#6F8F6F" fill-opacity="1" stroke="none" />
</g>
<g id="Wire">
<line x1="320" y1="133" x2="320" y2="155" stroke="#FFFFFF" stroke-opacity="1" stroke-width="6" stroke-linecap="round" fill="none" />
<line x1="320" y1="128" x2="320" y2="160" stroke="#6F8F6F" stroke-opacity="1" stroke-width="1.5" stroke-linecap="round" fill="none" />
<ellipse cx="320" cy="160" rx="4" ry="4" fill="#6F8F6F" fill-opacity="1" stroke="none" />
</g>
<g id="Wire">
<line x1="374" y1="288" x2="330" y2="288" stroke="#FFFFFF" stroke-opacity="1" stroke-width="6" stroke-linecap="round" fill="none" />
<line x1="384" y1="288" x2="320" y2="288" stroke="#6F8F6F" stroke-opacity="1" stroke-width="1.5" stroke-linecap="round" fill="none" />
<ellipse cx="320" cy="288" rx="4" ry="4" fill="#6F8F6F" fill-opacity="1" stroke="none" />
</g>
<g id="Wire">
<line x1="320" y1="347" x2="320" y2="325" stroke="#FFFFFF" stroke-opacity="1" stroke-width="6" stroke-linecap="round" fill="none" />
<line x1="320" y1="352" x2="320" y2="320" stroke="#6F8F6F" stroke-opacity="1" stroke-width="1.5" stroke-linecap="round" fill="none" />
<ellipse cx="320" cy="320" rx="4" ry="4" fill="#6F8F6F" fill-opacity="1" stroke="none" />
</g>
<g id="Wire">
<line x1="357" y1="384" x2="379" y2="384" stroke="#FFFFFF" stroke-opacity="1" stroke-width="6" stroke-linecap="round" fill="none" />
<line x1="352" y1="384" x2="384" y2="384" stroke="#6F8F6F" stroke-opacity="1" stroke-width="1.5" stroke-linecap="round" fill="none" />
</g>
<g id="Wire">
<line x1="384" y1="374" x2="384" y2="330" stroke="#FFFFFF" stroke-opacity="1" stroke-width="6" stroke-linecap="round" fill="none" />
<line x1="384" y1="384" x2="384" y2="320" stroke="#6F8F6F" stroke-opacity="1" stroke-width="1.5" stroke-linecap="round" fill="none" />
</g>
<g id="Wire">
<line x1="320" y1="315" x2="320" y2="293" stroke="#FFFFFF" stroke-opacity="1" stroke-width="6" stroke-linecap="round" fill="none" />
<line x1="320" y1="320" x2="320" y2="288" stroke="#6F8F6F" stroke-opacity="1" stroke-width="1.5" stroke-linecap="round" fill="none" />
<ellipse cx="320" cy="320" rx="4" ry="4" fill="#6F8F6F" fill-opacity="1" stroke="none" />
<ellipse cx="320" cy="288" rx="4" ry="4" fill="#6F8F6F" fill-opacity="1" stroke="none" />
</g>
<g id="Wire">
<line x1="374" y1="320" x2="330" y2="320" stroke="#FFFFFF" stroke-opacity="1" stroke-width="6" stroke-linecap="round" fill="none" />
<line x1="384" y1="320" x2="320" y2="320" stroke="#6F8F6F" stroke-opacity="1" stroke-width="1.5" stroke-linecap="round" fill="none" />
<ellipse cx="320" cy="320" rx="4" ry="4" fill="#6F8F6F" fill-opacity="1" stroke="none" />
</g>
<g id="Buzzer">
<line x1="512" y1="288" x2="496" y2="288" stroke="#6F8F6F" stroke-opacity="1" stroke-width="3" stroke-linecap="round" fill="none" />
<line x1="464" y1="288" x2="448" y2="288" stroke="#6F8F6F" stroke-opacity="1" stroke-width="3" stroke-linecap="round" fill="none" />
<ellipse cx="480" cy="288" rx="16" ry="16" fill="#6F8F6F" fill-opacity="1" stroke="none" />
<ellipse cx="480" cy="288" rx="3" ry="3" fill="#FFFFFF" fill-opacity="1" stroke="none" />
<rect x="508" y="284" width="8" height="8" stroke="#877777" stroke-opacity="1" stroke-width="1" fill="none" />
</g>
<g id="Ground">
<line x1="160" y1="288" x2="96" y2="288" stroke="#877777" stroke-opacity="1" stroke-width="3" stroke-linecap="round" fill="none" />
<line x1="96" y1="298" x2="96" y2="278" stroke="#877777" stroke-opacity="1" stroke-width="3" stroke-linecap="round" fill="none" />
<line x1="91" y1="294" x2="91" y2="282" stroke="#877777" stroke-opacity="1" stroke-width="3" stroke-linecap="round" fill="none" />
<line x1="86" y1="290" x2="86" y2="286" stroke="#877777" stroke-opacity="1" stroke-width="3" stroke-linecap="round" fill="none" />
<ellipse cx="160" cy="288" rx="4" ry="4" fill="#877777" fill-opacity="1" stroke="none" />
</g>
<g id="Wire">
<line x1="160" y1="254" x2="160" y2="98" stroke="#FFFFFF" stroke-opacity="1" stroke-width="6" stroke-linecap="round" fill="none" />
<line x1="160" y1="288" x2="160" y2="64" stroke="#877777" stroke-opacity="1" stroke-width="1.5" stroke-linecap="round" fill="none" />
<ellipse cx="160" cy="288" rx="4" ry="4" fill="#877777" fill-opacity="1" stroke="none" />
</g>
<g id="Wire">
<line x1="184" y1="64" x2="296" y2="64" stroke="#FFFFFF" stroke-opacity="1" stroke-width="6" stroke-linecap="round" fill="none" />
<line x1="160" y1="64" x2="320" y2="64" stroke="#877777" stroke-opacity="1" stroke-width="1.5" stroke-linecap="round" fill="none" />
</g>
<g id="Wire">
<line x1="160" y1="326" x2="160" y2="506" stroke="#FFFFFF" stroke-opacity="1" stroke-width="6" stroke-linecap="round" fill="none" />
<line x1="160" y1="288" x2="160" y2="544" stroke="#877777" stroke-opacity="1" stroke-width="1.5" stroke-linecap="round" fill="none" />
<ellipse cx="160" cy="288" rx="4" ry="4" fill="#877777" fill-opacity="1" stroke="none" />
</g>
<g id="Wire">
<line x1="184" y1="544" x2="296" y2="544" stroke="#FFFFFF" stroke-opacity="1" stroke-width="6" stroke-linecap="round" fill="none" />
<line x1="160" y1="544" x2="320" y2="544" stroke="#877777" stroke-opacity="1" stroke-width="1.5" stroke-linecap="round" fill="none" />
</g>
</svg>
